# xmcd
#
# Track frame offsets:
# 150
# 34914
# 69613
# 98131
# 125131
# 155578
# 183110
#
# Disc length: 2904 seconds
#
# Revision: 0
# Processed by: cddbd v1.4PL0 Copyright (c) Steve Scherf et al.
# Submitted via: Audion 3.0.2 (http://www.panic.com/audion/)
#
DISCID=5d0b5607
DTITLE=Sonny Rollins - légendes du jazz
DYEAR=1900
DGENRE=
TTITLE0=A night in tunisia
TTITLE1=Solftly as in a morning sunrise
TTITLE2=How are things in Glocca Morra
TTITLE3=Asiatic raes
TTITLE4=Blues for Philly Joe
TTITLE5=Poor butterfly
TTITLE6=Old devil moon
EXTD=
EXTT0=
EXTT1=
EXTT2=
EXTT3=
EXTT4=
EXTT5=
EXTT6=
PLAYORDER=
